<svg xmlns="http://www.w3.org/2000/svg" viewBox="0 0 450 209.25" fill="currentColor">
  <!-- V -->
  <g transform="translate(26.377908, 127.791951)">
    <path d="M 24.890625 0 L 19.78125 0 L 0.6875 -46.28125 L 6.296875 -46.28125 L 21.296875 -9.734375 L 22.34375 -6.171875 L 23.390625 -9.6875 L 38.375 -46.28125 L 44 -46.28125 Z"/>
  </g>
  <!-- é -->
  <g transform="translate(86.666704, 127.791951)">
    <path d="M 32.796875 -64.6875 L 36.953125 -63.28125 L 29.609375 -52.453125 L 25.671875 -52.453125 Z M 49.65625 -24.390625 C 49.65625 -24.085938 49.65625 -23.789062 49.65625 -23.5 C 49.65625 -23.21875 49.625 -22.800781 49.5625 -22.25 L 9.3125 -22.25 C 9.46875 -19.414062 10.0625 -16.863281 11.09375 -14.59375 C 12.132812 -12.320312 13.476562 -10.367188 15.125 -8.734375 C 16.769531 -7.109375 18.617188 -5.867188 20.671875 -5.015625 C 22.722656 -4.171875 24.847656 -3.75 27.046875 -3.75 C 30.421875 -3.75 33.460938 -4.570312 36.171875 -6.21875 C 38.890625 -7.863281 40.875 -10.253906 42.125 -13.390625 L 48.015625 -13.390625 C 47.066406 -10.554688 45.566406 -8.039062 43.515625 -5.84375 C 41.460938 -3.65625 39.035156 -1.9375 36.234375 -0.6875 C 33.429688 0.558594 30.398438 1.1875 27.140625 1.1875 C 23.910156 1.1875 20.898438 0.558594 18.109375 -0.6875 C 15.328125 -1.9375 12.875 -3.664062 10.75 -5.875 C 8.632812 -8.082031 6.984375 -10.660156 5.796875 -13.609375 C 4.609375 -16.566406 4.015625 -19.734375 4.015625 -23.109375 C 4.015625 -26.492188 4.609375 -29.660156 5.796875 -32.609375 C 6.984375 -35.566406 8.632812 -38.164062 10.75 -40.40625 C 12.875 -42.644531 15.328125 -44.390625 18.109375 -45.640625 C 20.898438 -46.890625 23.910156 -47.515625 27.140625 -47.515625 C 30.335938 -47.515625 33.304688 -46.894531 36.046875 -45.65625 C 38.785156 -44.425781 41.175781 -42.738281 43.21875 -40.59375 C 45.257812 -38.445312 46.84375 -35.976562 47.96875 -33.1875 C 49.09375 -30.40625 49.65625 -27.472656 49.65625 -24.390625 Z M 9.546875 -26.953125 L 44.3125 -26.953125 C 44.1875 -29.023438 43.648438 -31 42.703125 -32.875 C 41.765625 -34.75 40.507812 -36.40625 38.9375 -37.84375 C 37.375 -39.289062 35.570312 -40.425781 33.53125 -41.25 C 31.488281 -42.070312 29.328125 -42.484375 27.046875 -42.484375 C 24.941406 -42.484375 22.921875 -42.125 20.984375 -41.40625 C 19.054688 -40.695312 17.289062 -39.664062 15.6875 -38.3125 C 14.09375 -36.957031 12.757812 -35.316406 11.6875 -33.390625 C 10.625 -31.472656 9.910156 -29.328125 9.546875 -26.953125 Z"/>
  </g>
  <!-- r -->
  <g transform="translate(156.50304, 127.791951)">
    <path d="M 13.703125 0 L 8.40625 0 L 8.40625 -46.28125 L 13.515625 -46.28125 L 13.515625 -34.265625 C 14.703125 -38.035156 16.660156 -40.976562 19.390625 -43.09375 C 22.117188 -45.21875 25.296875 -46.28125 28.921875 -46.28125 L 33.03125 -46.28125 L 33.03125 -41.53125 L 29.140625 -41.53125 C 26.285156 -41.53125 23.691406 -40.753906 21.359375 -39.203125 C 19.023438 -37.648438 17.164062 -35.414062 15.78125 -32.5 C 14.394531 -29.59375 13.703125 -26.097656 13.703125 -22.015625 Z"/>
  </g>
  <!-- t -->
  <g transform="translate(209.711522, 127.791951)">
    <path d="M 33.125 0 L 25.359375 0 C 23.554688 0 21.828125 -0.234375 20.171875 -0.703125 C 18.515625 -1.179688 17.019531 -2.03125 15.6875 -3.25 C 14.363281 -4.46875 13.3125 -6.164062 12.53125 -8.34375 C 11.757812 -10.519531 11.375 -13.3125 11.375 -16.71875 L 11.375 -41.53125 L 0.453125 -41.53125 L 0.453125 -46.28125 L 11.375 -46.28125 L 11.375 -60.265625 L 16.625 -60.265625 L 16.625 -46.28125 L 33.125 -46.28125 L 33.125 -41.53125 L 16.625 -41.53125 L 16.625 -16.53125 C 16.625 -13.945312 16.90625 -11.863281 17.46875 -10.28125 C 18.03125 -8.695312 18.773438 -7.492188 19.703125 -6.671875 C 20.640625 -5.847656 21.675781 -5.296875 22.8125 -5.015625 C 23.957031 -4.742188 25.109375 -4.609375 26.265625 -4.609375 L 33.125 -4.609375 Z"/>
  </g>
  <!-- i -->
  <g transform="translate(262.508746, 127.791951)">
    <path d="M 11.015625 -56.921875 C 9.796875 -56.921875 8.8125 -57.289062 8.0625 -58.03125 C 7.3125 -58.78125 6.9375 -59.707031 6.9375 -60.8125 C 6.9375 -61.875 7.3125 -62.785156 8.0625 -63.546875 C 8.8125 -64.304688 9.796875 -64.6875 11.015625 -64.6875 C 12.265625 -64.6875 13.257812 -64.304688 14 -63.546875 C 14.75 -62.785156 15.125 -61.875 15.125 -60.8125 C 15.125 -59.707031 14.75 -58.78125 14 -58.03125 C 13.257812 -57.289062 12.265625 -56.921875 11.015625 -56.921875 Z M 13.65625 0 L 8.40625 0 L 8.40625 -46.28125 L 13.65625 -46.28125 Z"/>
  </g>
  <!-- c -->
  <g transform="translate(301.601558, 127.791951)">
    <path d="M 27.359375 1.234375 C 24.128906 1.234375 21.097656 0.605469 18.265625 -0.640625 C 15.441406 -1.890625 12.960938 -3.632812 10.828125 -5.875 C 8.691406 -8.113281 7.019531 -10.703125 5.8125 -13.640625 C 4.613281 -16.578125 4.015625 -19.734375 4.015625 -23.109375 C 4.015625 -26.492188 4.613281 -29.660156 5.8125 -32.609375 C 7.019531 -35.566406 8.691406 -38.164062 10.828125 -40.40625 C 12.960938 -42.644531 15.441406 -44.390625 18.265625 -45.640625 C 21.097656 -46.890625 24.128906 -47.515625 27.359375 -47.515625 C 30.835938 -47.515625 34.015625 -46.859375 36.890625 -45.546875 C 39.765625 -44.234375 42.238281 -42.425781 44.3125 -40.125 C 46.382812 -37.832031 47.90625 -35.160156 48.875 -32.109375 L 43.453125 -32.109375 C 42.535156 -34.335938 41.269531 -36.21875 39.65625 -37.75 C 38.039062 -39.289062 36.1875 -40.460938 34.09375 -41.265625 C 32.007812 -42.078125 29.78125 -42.484375 27.40625 -42.484375 C 25.125 -42.484375 22.898438 -42.035156 20.734375 -41.140625 C 18.578125 -40.242188 16.632812 -38.945312 14.90625 -37.25 C 13.1875 -35.5625 11.816406 -33.53125 10.796875 -31.15625 C 9.785156 -28.78125 9.28125 -26.113281 9.28125 -23.15625 C 9.28125 -20.175781 9.785156 -17.488281 10.796875 -15.09375 C 11.816406 -12.707031 13.1875 -10.664062 14.90625 -8.96875 C 16.632812 -7.28125 18.578125 -5.988281 20.734375 -5.09375 C 22.898438 -4.195312 25.125 -3.75 27.40625 -3.75 C 29.78125 -3.75 32.007812 -4.148438 34.09375 -4.953125 C 36.1875 -5.765625 38.039062 -6.960938 39.65625 -8.546875 C 41.269531 -10.128906 42.535156 -12.0625 43.453125 -14.34375 L 48.84375 -14.34375 C 47.894531 -11.238281 46.382812 -8.515625 44.3125 -6.171875 C 42.238281 -3.828125 39.753906 -2.003906 36.859375 -0.703125 C 33.972656 0.585938 30.804688 1.234375 27.359375 1.234375 Z"/>
  </g>
  <!-- e -->
  <g transform="translate(370.798367, 127.791951)">
    <path d="M 49.65625 -24.390625 C 49.65625 -24.085938 49.65625 -23.789062 49.65625 -23.5 C 49.65625 -23.21875 49.625 -22.800781 49.5625 -22.25 L 9.3125 -22.25 C 9.46875 -19.414062 10.0625 -16.863281 11.09375 -14.59375 C 12.132812 -12.320312 13.476562 -10.367188 15.125 -8.734375 C 16.769531 -7.109375 18.617188 -5.867188 20.671875 -5.015625 C 22.722656 -4.171875 24.847656 -3.75 27.046875 -3.75 C 30.421875 -3.75 33.460938 -4.570312 36.171875 -6.21875 C 38.890625 -7.863281 40.875 -10.253906 42.125 -13.390625 L 48.015625 -13.390625 C 47.066406 -10.554688 45.566406 -8.039062 43.515625 -5.84375 C 41.460938 -3.65625 39.035156 -1.9375 36.234375 -0.6875 C 33.429688 0.558594 30.398438 1.1875 27.140625 1.1875 C 23.910156 1.1875 20.898438 0.558594 18.109375 -0.6875 C 15.328125 -1.9375 12.875 -3.664062 10.75 -5.875 C 8.632812 -8.082031 6.984375 -10.660156 5.796875 -13.609375 C 4.609375 -16.566406 4.015625 -19.734375 4.015625 -23.109375 C 4.015625 -26.492188 4.609375 -29.660156 5.796875 -32.609375 C 6.984375 -35.566406 8.632812 -38.164062 10.75 -40.40625 C 12.875 -42.644531 15.328125 -44.390625 18.109375 -45.640625 C 20.898438 -46.890625 23.910156 -47.515625 27.140625 -47.515625 C 30.335938 -47.515625 33.304688 -46.894531 36.046875 -45.65625 C 38.785156 -44.425781 41.175781 -42.738281 43.21875 -40.59375 C 45.257812 -38.445312 46.84375 -35.976562 47.96875 -33.1875 C 49.09375 -30.40625 49.65625 -27.472656 49.65625 -24.390625 Z M 9.546875 -26.953125 L 44.3125 -26.953125 C 44.1875 -29.023438 43.648438 -31 42.703125 -32.875 C 41.765625 -34.75 40.507812 -36.40625 38.9375 -37.84375 C 37.375 -39.289062 35.570312 -40.425781 33.53125 -41.25 C 31.488281 -42.070312 29.328125 -42.484375 27.046875 -42.484375 C 24.941406 -42.484375 22.921875 -42.125 20.984375 -41.40625 C 19.054688 -40.695312 17.289062 -39.664062 15.6875 -38.3125 C 14.09375 -36.957031 12.757812 -35.316406 11.6875 -33.390625 C 10.625 -31.472656 9.910156 -29.328125 9.546875 -26.953125 Z"/>
  </g>
</svg>
